HIERARCHY
ROOT Hips
{
  OFFSET 0 0 0
  CHANNELS 6 Xposition Yposition Zposition Zrotation Xrotation Yrotation
  JOINT Spine
  {
    OFFSET 0 8.83416 0
    CHANNELS 3 Zrotation Xrotation Yrotation
    JOINT Spine1
    {
      OFFSET 0 17.8555 0
      CHANNELS 3 Zrotation Xrotation Yrotation
      JOINT Neck
      {
        OFFSET 0 17.7822 1.61656
        CHANNELS 3 Zrotation Xrotation Yrotation
        JOINT Head
        {
          OFFSET 0 15.0827 -2.15467
          CHANNELS 3 Zrotation Xrotation Yrotation
          End Site
          {
            OFFSET 0 26.9334 0
          }
        }
      }
      JOINT LeftShoulder
      {
        OFFSET 4.28078 15.9895 -0.632416
        CHANNELS 3 Zrotation Xrotation Yrotation
        JOINT LeftArm
        {
          OFFSET 11.7359 0 0
          CHANNELS 3 Zrotation Xrotation Yrotation
          JOINT LeftForeArm
          {
            OFFSET 33.15 0 0
            CHANNELS 3 Zrotation Xrotation Yrotation
            JOINT LeftHand
            {
              OFFSET 28.5724 0 0
              CHANNELS 3 Zrotation Xrotation Yrotation
              End Site
              {
                OFFSET 16.1601 0 0
              }
            }
          }
        }
      }
      JOINT RightShoulder
      {
        OFFSET -4.29063 15.9895 -0.632416
        CHANNELS 3 Zrotation Xrotation Yrotation
        JOINT RightArm
        {
          OFFSET -11.7359 0 0
          CHANNELS 3 Zrotation Xrotation Yrotation
          JOINT RightForeArm
          {
            OFFSET -33.15 0 0
            CHANNELS 3 Zrotation Xrotation Yrotation
            JOINT RightHand
            {
              OFFSET -28.5724 0 0
              CHANNELS 3 Zrotation Xrotation Yrotation
              End Site
              {
                OFFSET -16.1601 0 0
              }
            }
          }
        }
      }
    }
  }
  JOINT LeftUpLeg
  {
    OFFSET 10.7734 0 0
    CHANNELS 3 Zrotation Xrotation Yrotation
    JOINT LeftLeg
    {
      OFFSET 0 -54.0627 0
      CHANNELS 3 Zrotation Xrotation Yrotation
      JOINT LeftFoot
      {
        OFFSET 0 -48.9411 0
        CHANNELS 3 Zrotation Xrotation Yrotation
        JOINT LeftToeBase
        {
          OFFSET 0 -7.00269 16.1601
          CHANNELS 3 Zrotation Xrotation Yrotation
          End Site
          {
            OFFSET 0 0 4.30935
          }
        }
      }
    }
  }
  JOINT RightUpLeg
  {
    OFFSET -10.7734 0 0
    CHANNELS 3 Zrotation Xrotation Yrotation
    JOINT RightLeg
    {
      OFFSET 0 -54.0627 0
      CHANNELS 3 Zrotation Xrotation Yrotation
      JOINT RightFoot
      {
        OFFSET 0 -48.9411 0
        CHANNELS 3 Zrotation Xrotation Yrotation
        JOINT RightToeBase
        {
          OFFSET 0 -7.00269 16.1601
          CHANNELS 3 Zrotation Xrotation Yrotation
          End Site
          {
            OFFSET 0 0 4.30935
          }
        }
      }
    }
  }
}
MOTION
Frames:	18
Frame Time:	0.00833333
-22.7556 106.343 14.0164 2.2663 -1.99904 -88.9434 -7.50073 -34.8767 -3.4145 15.0321 30.887 -5.23047 -4.90402 28.0946 1.84836 2.75114 -14.6415 2.08709 -2.29764 11.6696 14.1137 -35.6015 51.2323 -45.8377 -7.25381 -6.09772 -18.4881 -8.48735 -8.22955 12.9759 -7.85422 9.44905 -4.6929 41.5116 29.2442 43.9604 -0.496668 -15.4315 27.2124 8.20389 -15.6785 -5.2693 4.50035 -23.1364 1.19919 -26.949 71.5511 8.83899 3.14464 -14.7411 18.6353 -1.59028e-015 1.68967e-015 1.59028e-015 0.913594 -2.40276 8.58655 1.66682 10.4614 0.976996 -15.3775 -20.5324 -21.9508 -5.51738e-033 -3.97569e-016 -7.95139e-016 
-23.7205 106.39 13.9193 2.22391 -2.16716 -89.1623 -7.32839 -34.7938 -3.13785 14.5836 31.0204 -4.90647 -4.67398 27.8837 1.85792 2.36878 -14.5859 2.03106 -2.23444 11.8016 14.564 -36.9717 50.8213 -44.4173 -7.52284 -5.92676 -17.6649 -8.26297 -8.03994 13.2086 -7.95464 9.21134 -4.5938 41.156 29.1734 44.2067 -0.693471 -16.153 28.4402 7.77722 -16.3519 -5.61852 4.2889 -23.8741 1.28301 -25.5022 70.2605 6.69903 3.45669 -15.2805 19.1328 7.95139e-016 -2.28602e-015 -0 0.845399 -1.49726 8.51727 1.46221 9.72183 1.04142 -15.3508 -20.553 -21.7342 -2.75869e-032 9.93923e-016 1.59028e-015 
-24.7114 106.433 13.8385 2.1809 -2.38217 -89.466 -7.12079 -34.7447 -2.81548 14.1329 31.1198 -4.53913 -4.90606 27.8123 1.91764 2.55394 -14.6031 2.11975 -2.29166 11.7416 14.9145 -38.284 50.5737 -42.7327 -7.77047 -5.9478 -16.9549 -8.21692 -8.05296 13.3318 -8.14325 9.08111 -4.49299 41.2996 28.5919 44.3635 -0.740295 -16.3637 29.4192 7.35725 -16.5359 -5.80942 4.05568 -24.5087 1.29719 -24.337 68.7233 4.84937 3.66504 -15.8142 19.6014 2.38542e-015 -2.5842e-015 -0 0.723213 -0.624278 8.40883 1.22621 9.06314 1.07537 -15.2011 -20.6508 -21.3496 1.59028e-015 -9.93923e-016 -1.59028e-015 
-25.6981 106.447 13.7673 2.203 -2.57495 -89.7476 -6.90023 -34.7494 -2.5083 13.6545 31.215 -4.17758 -4.97335 27.8118 1.98199 2.52609 -14.7511 2.1749 -2.27566 11.7612 15.2235 -39.7868 50.0352 -40.9786 -8.08565 -5.91059 -16.2207 -8.25773 -8.01823 13.3669 -8.27101 8.85667 -4.27549 41.343 28.0891 44.3545 -0.9022 -16.5643 30.4422 7.26225 -16.6932 -5.98837 3.76084 -25.277 1.2482 -23.0894 67.1164 3.07684 3.66562 -16.308 20.0312 -7.95139e-016 2.5842e-015 -0 0.616206 0.208102 8.47913 1.00976 8.38815 1.22694 -15.1188 -20.7402 -21.3099 -1.59028e-015 2.78299e-015 -0 
-26.6818 106.448 13.684 2.2064 -2.73238 -90.0471 -6.64127 -34.7271 -2.20628 13.1894 31.3409 -3.84724 -5.20868 27.7269 2.08451 2.68775 -14.8676 2.30513 -2.28877 11.9222 15.7862 -40.6818 49.6002 -39.8158 -8.47205 -6.11823 -15.7446 -8.10409 -8.23476 13.4982 -8.46179 8.71234 -4.1743 41.2836 27.7234 44.6171 -1.26226 -16.8482 31.3257 7.64049 -16.891 -5.96217 3.49269 -25.8984 1.47938 -21.2201 65.3633 1.07924 3.67715 -16.9434 20.2453 -2.48282e-032 -8.94531e-016 -1.59028e-015 0.551972 1.07125 8.52062 0.766392 7.66332 1.28922 -14.966 -20.8357 -21.0926 1.59028e-015 3.57812e-015 -0 
-27.4864 106.405 13.7216 1.91341 -4.24389 -90.1114 -5.25648 -34.3645 -0.866407 12.0315 31.1835 -2.66299 -5.31308 28.0452 2.17306 2.63436 -15.3715 2.36439 -2.38824 11.9882 16.1115 -42.1956 48.7492 -38.126 -8.80502 -6.15013 -14.8786 -8.12635 -8.26128 13.6652 -8.44862 8.50843 -3.61916 41.2282 27.0493 44.4512 -1.53496 -17.1035 32.1937 7.86523 -17.0682 -5.90656 3.40034 -25.9153 2.51074 -19.8849 63.3068 -0.466631 4.00632 -17.7553 20.7929 7.95139e-016 1.78906e-015 3.18055e-015 0.125562 1.91442 9.38328 0.598363 7.51587 1.86893 -15.1668 -21.2349 -21.2257 -2.06902e-032 1.49089e-015 7.95139e-016 
-30.454 106.749 12.0862 4.91893 6.09824 -85.5687 -18.4192 -38.5912 -12.1679 20.0102 34.4608 -11.7333 -6.19699 25.2392 2.27462 3.44639 -12.8271 2.69394 -1.94947 11.9568 18.8315 -38.4601 51.719 -40.0604 -9.41605 -7.52909 -17.9534 -7.9363 -10.0152 14.8053 -10.2798 8.87435 -6.39388 41.1354 28.7189 47.8587 -1.3255 -17.5079 33.4034 7.3595 -17.5135 -6.26528 1.18751 -30.8312 -6.9292 -17.733 60.911 -4.40734 3.30013 -16.8944 20.2837 1.59028e-015 -3.97569e-016 -2.98177e-016 3.98946 2.68596 0.234193 -1.49166 1.72863 -1.92644 -11.6714 -18.394 -17.8466 1.59028e-015 -3.97569e-016 1.59028e-015 
-34.604 107.311 9.51453 10.9185 -1.73901 -62.9284 -43.9995 -41.9298 -32.9689 35.5942 37.446 -27.8482 -7.41943 20.875 2.32212 4.69379 -8.77295 3.10655 -1.16607 12.0261 23.0928 -30.4043 56.4783 -45.6973 -10.6789 -9.3959 -23.1374 -7.31185 -12.5805 16.3441 -12.9667 9.57891 -11.1674 40.667 30.9053 53.5244 -0.995267 -17.7254 34.7525 6.83395 -17.8216 -6.90836 -6.15042 -36.3865 -24.7241 -16.6398 58.031 -8.40221 1.58909 -14.9947 19.3097 3.97569e-016 -5.96354e-015 -1.59028e-015 10.4821 2.95795 -14.8659 -6.01398 -6.92916 -7.75652 -6.85045 -13.2623 -13.1333 1.49089e-016 7.70291e-016 -0 
-35.4794 107.215 9.5399 10.3582 -0.660839 -63.8999 -42.6437 -42.0518 -31.9114 34.3689 37.544 -26.8852 -7.3017 21.4375 2.47431 4.33473 -9.33794 3.17333 -1.18878 12.072 23.1502 -32.4923 56.0053 -43.0843 -11.057 -9.62567 -22.8287 -7.27818 -12.8471 16.2844 -12.9096 9.51123 -10.3726 40.8062 30.2388 53.0658 -1.3235 -17.938 35.6175 6.91139 -17.9382 -7.02938 -6.15792 -36.281 -24.0868 -15.9733 55.5024 -9.65353 2.05251 -15.6853 20.2161 0 3.18055e-015 -0 10.5509 3.73917 -14.4917 -5.97511 -7.04224 -7.41447 -6.6453 -13.329 -13.1075 -0 -9.93923e-016 -0 
-34.5425 106.769 11.0411 6.2837 6.32242 -77.534 -25.931 -40.5627 -18.6204 23.6036 36.3311 -16.5469 -6.93458 23.8063 2.74731 3.6079 -11.8683 3.23027 -1.72914 11.7624 21.3787 -38.5993 53.0036 -37.1204 -10.8699 -9.05375 -20.1077 -7.62091 -11.9589 15.4427 -11.6231 8.78809 -6.98004 41.315 28.3175 49.6906 -1.89573 -18.0489 36.2029 6.92446 -17.845 -6.70031 -1.96564 -33.6626 -13.3663 -14.6037 53.0527 -9.62093 3.50588 -17.6309 21.807 1.10348e-032 -7.95139e-016 7.95139e-016 6.62707 4.93887 -5.42369 -3.4717 -2.80744 -4.30581 -8.92049 -16.9125 -15.0334 -1.21382e-031 -4.37326e-015 -1.59028e-015 
-32.3708 106.116 13.4836 2.00312 -5.42189 -91.6097 -3.09813 -34.4535 0.628179 8.93204 31.7939 -1.02912 -6.6367 27.606 3.0072 3.13651 -15.8287 3.25809 -2.54386 11.4537 18.2551 -46.0062 47.5793 -30.5629 -10.4959 -7.73107 -15.5755 -8.17721 -10.1447 13.9222 -9.30645 7.67857 -1.99828 41.4488 24.9948 44.6106 -2.59833 -18.266 36.7565 7.32147 -17.835 -6.39905 1.91471 -27.427 2.68229 -12.3972 50.4218 -8.93213 5.55924 -20.3478 23.7418 -3.97569e-016 -2.98177e-016 -1.59028e-015 -0.385159 5.76826 9.44649 -0.369093 4.60568 1.04611 -13.5722 -22.6279 -18.8003 -1.59028e-015 3.97569e-016 -0 
-33.7123 106.086 13.155 2.68088 -3.41621 -91.5606 -4.9782 -35.3476 -1.03934 10.0488 32.4083 -2.37929 -7.01389 27.1739 3.11184 3.23433 -15.5136 3.37392 -2.63001 11.3706 18.9368 -45.6524 48.3823 -29.6819 -10.8407 -8.26621 -16.7854 -8.10104 -10.8389 14.1247 -9.86326 7.76508 -2.38694 41.5493 24.903 45.2248 -2.71312 -18.3829 37.6459 7.53229 -17.9137 -6.55145 1.42231 -28.2801 0.906282 -11.4419 47.0514 -9.63472 5.32942 -20.5715 23.5682 -1.59028e-015 9.93923e-017 7.95139e-016 0.374336 6.40402 7.80072 -0.808443 3.35521 0.543425 -12.8521 -22.2316 -18.0306 1.37935e-032 -9.93923e-016 7.95139e-016 
-34.7605 105.978 13.1127 2.89761 -3.53612 -91.6126 -4.94691 -35.6415 -1.00193 9.7714 32.6056 -2.27503 -7.16259 27.0656 3.22019 3.1601 -15.5808 3.46001 -2.66253 11.1811 19.2037 -46.117 48.5309 -28.2237 -11.1032 -8.56202 -17.4958 -8.05439 -11.2358 14.1439 -10.0139 7.67091 -2.28059 41.4162 24.6545 45.3142 -2.97536 -18.6001 38.4745 7.62214 -18.0259 -6.50126 0.942447 -28.3362 0.516842 -10.2725 43.4297 -10.1321 5.3428 -21.0089 23.4558 -0 -7.95139e-016 -0 0.276326 6.95839 7.7062 -0.897521 2.97567 0.559224 -12.7066 -22.4874 -17.9558 -7.95139e-016 -3.27995e-015 1.59028e-015 
-35.7827 105.859 13.0719 3.15303 -3.64333 -91.6287 -4.95173 -36.0089 -1.01847 9.54586 32.863 -2.22953 -7.34701 26.892 3.34153 3.09871 -15.6071 3.56334 -2.70246 11.0211 19.4999 -46.5311 48.7263 -26.9031 -11.2421 -8.67922 -18.3051 -8.03666 -11.4559 14.2164 -10.2075 7.58315 -2.10238 41.2658 24.4182 45.3556 -3.17468 -18.9283 39.3569 7.596 -18.2699 -6.64802 0.440599 -28.3116 0.175063 -8.99885 39.6454 -10.3418 5.08356 -21.4909 22.9826 -2.34489e-032 1.68967e-015 7.95139e-016 0.213984 7.37792 7.21315 -1.01076 2.79818 1.11947 -12.598 -22.7964 -18.1009 7.95139e-016 -1.88845e-015 1.59028e-015 
-36.8038 105.724 13.029 3.3761 -3.69304 -91.736 -4.83763 -36.2211 -0.920075 9.3301 32.9104 -2.09851 -7.57472 26.8127 3.43858 3.11613 -15.6426 3.65233 -2.77314 10.8058 19.6574 -46.8485 49.1654 -25.4538 -11.3559 -8.86026 -19.2974 -8.07271 -11.7566 14.204 -10.3972 7.53723 -2.03233 41.3648 24.1281 45.2384 -3.34629 -19.1017 40.3377 7.42641 -18.3589 -6.8485 0.0361766 -28.1888 -0.0645052 -7.80485 35.6527 -10.4658 4.59929 -21.9083 22.475 -0 -1.49089e-015 -0 0.192463 7.80603 7.16871 -1.0921 2.66234 1.38295 -12.5875 -23.0656 -18.2601 -4.68978e-032 1.68967e-015 1.59028e-015 
-37.6694 105.545 13.1191 3.23693 -5.01482 -92.0879 -3.49027 -35.9657 0.33273 8.46452 32.5672 -1.05523 -7.77773 27.0751 3.52232 3.08206 -16.0522 3.69824 -2.92682 10.6318 19.592 -47.4821 49.1909 -23.821 -11.5146 -9.01027 -20.0098 -7.98114 -11.9961 14.1598 -10.4988 7.42967 -1.85168 41.3943 23.8384 44.9892 -3.63961 -19.2537 41.0104 7.31591 -18.374 -6.75839 -0.174704 -27.4304 0.845018 -6.45242 31.3109 -10.101 4.06415 -22.3163 21.6111 2.38542e-015 -2.33572e-015 7.95139e-016 -0.314695 8.3291 8.54198 -1.00581 2.98432 1.65342 -13.0133 -23.7002 -18.8353 -7.95139e-016 2.5842e-015 1.59028e-015 
-40.721 105.671 11.434 6.22023 4.21796 -85.1652 -17.2439 -40.2047 -11.426 17.1716 35.7274 -10.4575 -8.5378 24.7641 3.63107 3.57517 -13.8636 4.00166 -2.69108 10.6815 22.0052 -44.0584 53.1691 -25.0607 -11.9309 -10.0129 -24.2506 -7.51961 -13.4928 15.2383 -12.3657 8.073 -4.56554 41.4564 25.4798 48.0801 -3.53629 -19.4767 41.9076 7.03292 -18.6137 -7.1761 -2.37683 -30.5796 -8.73337 -6.88757 26.9846 -10.9013 2.29599 -21.3165 20.1131 3.18055e-015 4.57205e-015 7.95139e-016 5.01194 8.62452 -0.828607 -3.00794 -1.60589 -1.06581 -9.37352 -19.9761 -16.809 1.59028e-015 9.93923e-016 -1.59028e-015 
-45.009 105.941 8.77979 11.571 -1.45259 -64.233 -43.5742 -43.2477 -32.8543 33.5099 38.6503 -26.9558 -9.53255 20.8749 3.61158 4.56664 -10.0711 4.37579 -2.0472 10.8292 25.8351 -37.142 59.3574 -29.2623 -12.7048 -11.4295 -30.5713 -6.6897 -15.8036 17.0708 -14.9587 8.98617 -9.21114 41.2088 27.6815 53.2232 -3.0061 -19.5419 43.0546 6.57741 -18.8442 -7.7803 -8.35704 -33.8483 -25.4671 -8.58478 22.718 -12.5451 -0.21474 -19.4634 18.5242 1.02072e-031 3.67752e-015 -1.59028e-015 13.5745 8.24977 -16.2729 -7.0528 -8.9123 -5.4171 -4.13255 -13.5537 -13.8901 -1.19271e-015 -1.98785e-016 -0 
